<svg  viewBox="0 0 158 111" fill="none" xmlns="http://www.w3.org/2000/svg" id="logo">
<path d="M63.1023 17.612H74.7828V0H0V74.0911H74.7828V50.0923H63.1023V17.612Z" fill="#44324A"/>
<path d="M102.66 17.6118H81.5566V50.0921H102.66V17.6118Z" fill="#44324A"/>
<path d="M0 81.7075V107.772H26.3027V81.7075H0ZM19.638 101.164H6.67047L19.638 88.3163V101.164Z" fill="#44324A"/>
<path d="M5.21973 59.8447H8.16934C8.85253 59.8447 9.4585 59.9711 9.98726 60.2244C10.516 60.4777 10.9259 60.8363 11.217 61.3014C11.5081 61.7664 11.6536 62.3106 11.6536 62.9345C11.6536 63.5589 11.5081 64.1031 11.217 64.5682C10.9259 65.0332 10.516 65.3919 9.98726 65.6452C9.4585 65.8985 8.85253 66.0248 8.16934 66.0248H5.21973V59.8447ZM8.09803 64.6297C8.63271 64.6297 9.06046 64.48 9.38128 64.1794C9.70803 63.8794 9.87137 63.4644 9.87137 62.9345C9.87137 62.4051 9.70803 61.9901 9.38128 61.6902C9.06046 61.3896 8.63271 61.2399 8.09803 61.2399H6.98416V64.6297H8.09803ZM18.9267 64.6741V66.0248H13.9186V59.8447H18.8109V61.1955H15.6652V62.2372H18.4366V63.5441H15.6652V64.6741H18.9267ZM21.2425 59.8447H23.0069V66.0248H21.2425V59.8447ZM31.5338 59.8447V66.0248H30.0813L27.3277 62.7318V66.0248H25.5989V59.8447H27.0514L29.805 63.1377V59.8447H31.5338ZM40.2372 66.1484C39.7322 66.1484 39.242 66.0869 38.7668 65.9628C38.2915 65.8393 37.9054 65.6748 37.6083 65.4687L38.1876 64.1794C38.4668 64.3621 38.7906 64.509 39.1589 64.6211C39.5272 64.7327 39.8896 64.789 40.2461 64.789C40.9233 64.789 41.2619 64.6211 41.2619 64.2858C41.2619 64.1088 41.1639 63.9796 40.9679 63.8971C40.7777 63.8088 40.4689 63.7178 40.0411 63.6233C39.5718 63.5231 39.1797 63.4172 38.8649 63.3056C38.5499 63.1878 38.2797 63.0022 38.0539 62.7495C37.8281 62.4962 37.7153 62.1546 37.7153 61.7254C37.7153 61.3486 37.8192 61.0099 38.0272 60.7099C38.2351 60.4037 38.544 60.1623 38.954 59.9859C39.3698 59.8094 39.8777 59.7212 40.4778 59.7212C40.8877 59.7212 41.2916 59.7684 41.6897 59.8624C42.0877 59.9506 42.4382 60.0832 42.7412 60.2597L42.1976 61.5575C41.6035 61.2399 41.0273 61.0805 40.4689 61.0805C40.1183 61.0805 39.8629 61.1335 39.7025 61.2399C39.5421 61.3395 39.4619 61.4721 39.4619 61.6372C39.4619 61.8017 39.5569 61.9252 39.747 62.0078C39.9371 62.0903 40.2431 62.1757 40.6649 62.2639C41.1402 62.3641 41.5322 62.4729 41.8412 62.5907C42.156 62.7022 42.4263 62.885 42.6521 63.1377C42.8838 63.3853 42.9996 63.7234 42.9996 64.1532C42.9996 64.5238 42.8956 64.8596 42.6877 65.1596C42.4798 65.4596 42.1679 65.701 41.7521 65.8837C41.3362 66.0601 40.8312 66.1484 40.2372 66.1484ZM46.3921 61.2308H44.4761V59.8447H50.0635V61.2308H48.1565V66.0248H46.3921V61.2308ZM57.0656 64.6741V66.0248H52.0575V59.8447H56.9498V61.1955H53.8041V62.2372H56.5755V63.5441H53.8041V64.6741H57.0656ZM59.3812 59.8447H61.1456V66.0248H59.3812V59.8447ZM69.6724 59.8447V66.0248H68.22L65.4668 62.7318V66.0248H63.738V59.8447H65.1904L67.9436 63.1377V59.8447H69.6724Z" fill="white"/>
<path d="M41.4873 85.2285H49.5245C51.5407 85.2285 53.3297 85.6247 54.8918 86.4165C56.4538 87.2083 57.6618 88.324 58.5156 89.7635C59.3872 91.1849 59.8233 92.8226 59.8233 94.676C59.8233 96.5294 59.3872 98.1762 58.5156 99.6158C57.6618 101.037 56.4538 102.145 54.8918 102.936C53.3297 103.728 51.5407 104.124 49.5245 104.124H41.4873V85.2285ZM49.3611 101.776C50.9049 101.776 52.2581 101.479 53.4205 100.885C54.6012 100.291 55.5093 99.4627 56.145 98.4011C56.7807 97.3212 57.0986 96.0797 57.0986 94.676C57.0986 93.2723 56.7807 92.0399 56.145 90.9783C55.5093 89.8984 54.6012 89.0617 53.4205 88.4674C52.2581 87.8737 50.9049 87.5771 49.3611 87.5771H44.2118V101.776H49.3611ZM79.4716 101.776V104.124H65.6308V85.2285H79.0901V87.5771H68.3553V93.3804H77.9186V95.675H68.3553V101.776H79.4716ZM91.0757 104.339C89.6404 104.339 88.2512 104.124 86.9073 103.692C85.5813 103.242 84.5368 102.666 83.7738 101.964L84.7821 99.8589C85.5083 100.507 86.4351 101.037 87.5612 101.451C88.7051 101.847 89.8766 102.045 91.0757 102.045C92.6557 102.045 93.8363 101.784 94.6177 101.263C95.3985 100.723 95.7892 100.012 95.7892 99.1297C95.7892 98.4819 95.5709 97.9599 95.1354 97.5643C94.7171 97.1505 94.1908 96.8357 93.5548 96.6194C92.9372 96.4036 92.0564 96.1606 90.9119 95.8907C89.4773 95.5486 88.315 95.2071 87.425 94.865C86.5528 94.5229 85.799 94.0015 85.1636 93.2996C84.5459 92.5795 84.2374 91.617 84.2374 90.4113C84.2374 89.4032 84.5006 88.4947 85.0274 87.6847C85.5721 86.8753 86.3897 86.2275 87.479 85.7414C88.5689 85.2552 89.922 85.0127 91.5387 85.0127C92.6649 85.0127 93.7731 85.1568 94.8625 85.4442C95.9524 85.7322 96.8878 86.1461 97.6691 86.6863L96.77 88.8454C95.9708 88.3416 95.117 87.9636 94.2086 87.712C93.3009 87.4417 92.4109 87.3067 91.5387 87.3067C89.9949 87.3067 88.8326 87.5857 88.0512 88.1435C87.2888 88.7014 86.9073 89.4214 86.9073 90.3032C86.9073 90.951 87.1251 91.482 87.5612 91.8959C87.9967 92.2915 88.5327 92.6069 89.1687 92.8402C89.8226 93.0565 90.7034 93.2905 91.8111 93.5421C93.2463 93.8842 94.3994 94.2263 95.2716 94.5678C96.1431 94.91 96.8878 95.4319 97.5054 96.1338C98.1414 96.8357 98.4591 97.78 98.4591 98.968C98.4591 99.9579 98.1868 100.867 97.6416 101.694C97.0969 102.504 96.2701 103.152 95.1624 103.638C94.0547 104.106 92.6924 104.339 91.0757 104.339ZM104.074 85.2285H106.799V104.124H104.074V85.2285ZM127.357 94.5678H129.972V101.937C129.028 102.711 127.929 103.305 126.676 103.719C125.423 104.133 124.114 104.339 122.752 104.339C120.827 104.339 119.092 103.926 117.549 103.098C116.005 102.252 114.788 101.101 113.898 99.6425C113.026 98.1671 112.59 96.5118 112.59 94.676C112.59 92.8402 113.026 91.1849 113.898 89.7095C114.788 88.2335 116.005 87.0819 117.549 86.2542C119.111 85.4266 120.864 85.0127 122.807 85.0127C124.333 85.0127 125.713 85.2643 126.948 85.7681C128.201 86.2542 129.264 86.9743 130.136 87.9278L128.446 89.6013C126.921 88.1435 125.077 87.4149 122.916 87.4149C121.463 87.4149 120.155 87.7297 118.992 88.3598C117.848 88.9717 116.949 89.8353 116.295 90.951C115.642 92.0484 115.315 93.2905 115.315 94.676C115.315 96.0439 115.642 97.2854 116.295 98.4011C116.949 99.4985 117.848 100.363 118.992 100.992C120.155 101.623 121.454 101.937 122.889 101.937C124.596 101.937 126.086 101.533 127.357 100.723V94.5678ZM153.225 85.2285V104.124H150.99L139.548 90.0334V104.124H136.823V85.2285H139.057L150.5 99.3187V85.2285H153.225Z" fill="#44324B"/>
</svg>
