<svg id="logo" viewBox="0 0 158 32" fill="none" xmlns="http://www.w3.org/2000/svg">
<path d="M0 2.70703V28.7716H26.3027V2.70703H0ZM19.638 22.1636H6.67047L19.638 9.31583V22.1636Z" fill="#44324A"/>
<path d="M41.4883 6.22849H49.5255C51.5417 6.22849 53.3307 6.6247 54.8928 7.4165C56.4548 8.2083 57.6628 9.324 58.5166 10.7635C59.3882 12.1849 59.8243 13.8226 59.8243 15.676C59.8243 17.5294 59.3882 19.1762 58.5166 20.6158C57.6628 22.0368 56.4548 23.1448 54.8928 23.9358C53.3307 24.7278 51.5417 25.1238 49.5255 25.1238H41.4883V6.22849ZM49.3621 22.7758C50.9059 22.7758 52.2591 22.4788 53.4215 21.8848C54.6022 21.2908 55.5103 20.4627 56.146 19.4011C56.7817 18.3212 57.0996 17.0797 57.0996 15.676C57.0996 14.2723 56.7817 13.0399 56.146 11.9783C55.5103 10.8984 54.6022 10.0617 53.4215 9.46739C52.2591 8.87369 50.9059 8.5771 49.3621 8.5771H44.2128V22.7758H49.3621ZM79.4726 22.7758V25.1238H65.6318V6.22849H79.0911V8.5771H68.3563V14.3804H77.9196V16.675H68.3563V22.7758H79.4726ZM91.0767 25.3388C89.6414 25.3388 88.2522 25.1238 86.9083 24.6918C85.5823 24.2418 84.5378 23.6658 83.7748 22.9638L84.7831 20.8589C85.5093 21.5068 86.4361 22.0368 87.5622 22.4508C88.7061 22.8468 89.8776 23.0448 91.0767 23.0448C92.6567 23.0448 93.8373 22.7838 94.6187 22.2628C95.3995 21.7228 95.7902 21.0118 95.7902 20.1297C95.7902 19.4819 95.5719 18.9599 95.1364 18.5643C94.7181 18.1505 94.1918 17.8357 93.5558 17.6194C92.9382 17.4036 92.0574 17.1606 90.9129 16.8907C89.4783 16.5486 88.316 16.2071 87.426 15.865C86.5538 15.5229 85.8 15.0015 85.1646 14.2996C84.5469 13.5795 84.2384 12.617 84.2384 11.4113C84.2384 10.4032 84.5016 9.49469 85.0284 8.68469C85.5731 7.87529 86.3907 7.22749 87.48 6.74139C88.5699 6.25519 89.923 6.0127 91.5397 6.0127C92.6659 6.0127 93.7741 6.15679 94.8635 6.44419C95.9534 6.73219 96.8888 7.14609 97.6701 7.68629L96.771 9.84539C95.9718 9.34159 95.118 8.96359 94.2096 8.71199C93.3019 8.44169 92.4119 8.30669 91.5397 8.30669C89.9959 8.30669 88.8336 8.58569 88.0522 9.14349C87.2898 9.70139 86.9083 10.4214 86.9083 11.3032C86.9083 11.951 87.1261 12.482 87.5622 12.8959C87.9977 13.2915 88.5337 13.6069 89.1697 13.8402C89.8236 14.0565 90.7044 14.2905 91.8121 14.5421C93.2473 14.8842 94.4004 15.2263 95.2726 15.5678C96.1441 15.91 96.8888 16.4319 97.5064 17.1338C98.1424 17.8357 98.4601 18.78 98.4601 19.968C98.4601 20.9579 98.1878 21.8668 97.6426 22.6938C97.0979 23.5038 96.2711 24.1518 95.1634 24.6378C94.0557 25.1058 92.6934 25.3388 91.0767 25.3388ZM104.075 6.22849H106.8V25.1238H104.075V6.22849ZM127.358 15.5678H129.973V22.9368C129.029 23.7108 127.93 24.3048 126.677 24.7188C125.424 25.1328 124.115 25.3388 122.753 25.3388C120.828 25.3388 119.093 24.9258 117.55 24.0978C116.006 23.2518 114.789 22.1008 113.899 20.6425C113.027 19.1671 112.591 17.5118 112.591 15.676C112.591 13.8402 113.027 12.1849 113.899 10.7095C114.789 9.2335 116.006 8.0819 117.55 7.2542C119.112 6.4266 120.865 6.0127 122.808 6.0127C124.334 6.0127 125.714 6.2643 126.949 6.7681C128.202 7.2542 129.265 7.9743 130.137 8.9278L128.447 10.6013C126.922 9.1435 125.078 8.41489 122.917 8.41489C121.464 8.41489 120.156 8.72969 118.993 9.35979C117.849 9.97169 116.95 10.8353 116.296 11.951C115.643 13.0484 115.316 14.2905 115.316 15.676C115.316 17.0439 115.643 18.2854 116.296 19.4011C116.95 20.4985 117.849 21.3628 118.993 21.9918C120.156 22.6228 121.455 22.9368 122.89 22.9368C124.597 22.9368 126.087 22.5328 127.358 21.7228V15.5678ZM153.226 6.22849V25.1238H150.991L139.549 11.0334V25.1238H136.824V6.22849H139.058L150.501 20.3187V6.22849H153.226Z" fill="#44324B"/>
</svg>
