<svg width="76" height="19" viewBox="0 0 76 19" fill="none" xmlns="http://www.w3.org/2000/svg">
<path d="M28.4176 4.09027H24.2122C24.0729 4.09018 23.9383 4.13911 23.8324 4.22822C23.7265 4.31734 23.6564 4.44079 23.6348 4.57633L21.9339 15.2048C21.9261 15.2541 21.9292 15.3045 21.943 15.3526C21.9569 15.4006 21.9811 15.4451 22.0141 15.483C22.047 15.5209 22.0879 15.5513 22.134 15.5721C22.18 15.5929 22.2301 15.6037 22.2807 15.6036H24.2884C24.4277 15.6037 24.5625 15.5547 24.6684 15.4654C24.7742 15.3762 24.8443 15.2526 24.8658 15.1169L25.3246 12.2503C25.3461 12.1147 25.416 11.9912 25.5218 11.902C25.6275 11.8128 25.7621 11.7637 25.9013 11.7636H27.2327C30.0029 11.7636 31.6017 10.4424 32.0192 7.82421C32.2074 6.67876 32.0272 5.77876 31.483 5.14845C30.8853 4.45633 29.8252 4.09027 28.4176 4.09027ZM28.9028 7.97209C28.6728 9.45936 27.5198 9.45936 26.405 9.45936H25.7704L26.2156 6.68179C26.2286 6.60052 26.2706 6.52652 26.3341 6.47308C26.3976 6.41964 26.4783 6.39027 26.5618 6.39027H26.8526C27.6121 6.39027 28.3284 6.39027 28.6986 6.81694C28.9194 7.07148 28.987 7.44967 28.9028 7.97209ZM40.9884 7.92421H38.9745C38.8911 7.92421 38.8103 7.95357 38.7469 8.00701C38.6834 8.06046 38.6414 8.13446 38.6283 8.21573L38.5392 8.77088L38.3984 8.56967C37.9624 7.94603 36.9902 7.73754 36.0199 7.73754C33.7945 7.73754 31.8937 9.39876 31.5236 11.7291C31.3311 12.8915 31.6047 14.003 32.2738 14.7782C32.8875 15.4909 33.7656 15.7878 34.8103 15.7878C36.6034 15.7878 37.5977 14.6515 37.5977 14.6515L37.508 15.203C37.5 15.2523 37.5029 15.3027 37.5166 15.3508C37.5303 15.3989 37.5544 15.4435 37.5872 15.4815C37.62 15.5195 37.6609 15.5501 37.7068 15.5711C37.7528 15.592 37.8029 15.6029 37.8535 15.603H39.6676C39.8069 15.6031 39.9416 15.5541 40.0475 15.4648C40.1534 15.3756 40.2234 15.252 40.245 15.1163L41.3334 8.323C41.3414 8.2738 41.3385 8.22347 41.3248 8.17549C41.3112 8.12752 41.2871 8.08303 41.2543 8.04511C41.2215 8.00719 41.1807 7.97675 41.1348 7.95587C41.0889 7.935 41.039 7.9242 40.9884 7.92421ZM38.1813 11.7872C37.987 12.9212 37.0738 13.6824 35.9092 13.6824C35.3244 13.6824 34.857 13.4975 34.557 13.1472C34.2593 12.7994 34.1462 12.3042 34.2409 11.7527C34.4223 10.6285 35.3508 9.84239 36.4976 9.84239C37.0695 9.84239 37.5344 10.0297 37.8406 10.383C38.1475 10.74 38.2692 11.2381 38.1813 11.7872ZM51.7138 7.92421H49.6901C49.5947 7.92436 49.5007 7.94746 49.4164 7.9915C49.3321 8.03554 49.2599 8.09919 49.2062 8.17694L46.4151 12.2291L45.232 8.33512C45.1956 8.21636 45.1215 8.11227 45.0205 8.03827C44.9195 7.96426 44.797 7.92427 44.6712 7.92421H42.6825C42.6267 7.92406 42.5716 7.93706 42.5219 7.96212C42.4722 7.98718 42.4293 8.02357 42.3968 8.06827C42.3642 8.11298 42.343 8.16469 42.3348 8.21912C42.3267 8.27355 42.3318 8.32911 42.3498 8.38118L44.5789 14.8285L42.4833 17.7442C42.446 17.7959 42.4239 17.8567 42.4194 17.92C42.4149 17.9832 42.4281 18.0465 42.4577 18.1028C42.4872 18.1591 42.5319 18.2063 42.5868 18.2393C42.6418 18.2723 42.7049 18.2897 42.7692 18.2897H44.7904C44.8848 18.2898 44.9778 18.2674 45.0615 18.2243C45.1451 18.1812 45.2169 18.1188 45.2707 18.0424L52.0016 8.46663C52.0381 8.41483 52.0595 8.35417 52.0635 8.29123C52.0675 8.22829 52.0539 8.16547 52.0243 8.10959C51.9946 8.05371 51.95 8.00689 51.8953 7.97421C51.8406 7.94153 51.7778 7.92424 51.7138 7.92421Z" fill="#022273"/>
<path d="M58.4138 4.09027H54.2078C54.0686 4.09032 53.9341 4.13931 53.8284 4.22842C53.7226 4.31752 53.6526 4.44089 53.631 4.57633L51.9301 15.2048C51.9222 15.254 51.9252 15.3044 51.9389 15.3524C51.9527 15.4003 51.9768 15.4448 52.0096 15.4827C52.0425 15.5206 52.0833 15.5511 52.1292 15.5719C52.1751 15.5928 52.2251 15.6036 52.2757 15.6036H54.434C54.5314 15.6035 54.6255 15.5691 54.6995 15.5066C54.7734 15.4442 54.8223 15.3578 54.8374 15.263L55.3201 12.2503C55.3417 12.1147 55.4116 11.9912 55.5174 11.902C55.6231 11.8128 55.7577 11.7637 55.8969 11.7636H57.2276C59.9985 11.7636 61.5966 10.4424 62.0148 7.82421C62.2035 6.67875 62.0221 5.77875 61.4779 5.14845C60.8809 4.45633 59.8213 4.09027 58.4138 4.09027ZM58.899 7.97208C58.6696 9.45936 57.5166 9.45936 56.4012 9.45936H55.7672L56.213 6.68178C56.2258 6.60052 56.2677 6.52645 56.331 6.47298C56.3944 6.4195 56.4752 6.39016 56.5586 6.39027H56.8494C57.6083 6.39027 58.3253 6.39027 58.6954 6.81693C58.9162 7.07148 58.9832 7.44966 58.899 7.97208ZM70.984 7.92421H68.9714C68.8879 7.92398 68.8071 7.95328 68.7437 8.00677C68.6803 8.06026 68.6384 8.1344 68.6258 8.21572L68.5366 8.77087L68.3952 8.56966C67.9592 7.94602 66.9876 7.73754 66.0173 7.73754C63.7919 7.73754 61.8918 9.39875 61.5216 11.7291C61.3297 12.8915 61.6022 14.003 62.2712 14.7781C62.8861 15.4909 63.763 15.7878 64.8077 15.7878C66.6008 15.7878 67.5952 14.6515 67.5952 14.6515L67.5054 15.203C67.4974 15.2524 67.5003 15.3029 67.5141 15.3511C67.5278 15.3993 67.552 15.4439 67.585 15.482C67.618 15.52 67.659 15.5505 67.7051 15.5714C67.7512 15.5923 67.8014 15.6031 67.8522 15.603H69.6656C69.8048 15.6029 69.9394 15.5538 70.0452 15.4646C70.1509 15.3754 70.2209 15.2519 70.2424 15.1163L71.3314 8.32299C71.3391 8.27364 71.3359 8.22322 71.322 8.17521C71.3081 8.12719 71.2838 8.08271 71.2508 8.04482C71.2178 8.00694 71.1768 7.97654 71.1308 7.95572C71.0847 7.9349 71.0347 7.92415 70.984 7.92421ZM68.1769 11.7872C67.9838 12.9212 67.0694 13.6824 65.9048 13.6824C65.3212 13.6824 64.8526 13.4975 64.5525 13.1472C64.2549 12.7994 64.143 12.3042 64.2365 11.7527C64.4191 10.6284 65.3464 9.84239 66.4932 9.84239C67.0651 9.84239 67.53 10.0297 67.8362 10.383C68.1443 10.74 68.266 11.2381 68.1769 11.7872ZM73.3582 4.38178L71.6321 15.2048C71.6242 15.254 71.6272 15.3044 71.6409 15.3524C71.6547 15.4003 71.6788 15.4448 71.7116 15.4827C71.7445 15.5206 71.7853 15.5511 71.8312 15.5719C71.8771 15.5928 71.9271 15.6036 71.9777 15.6036H73.713C74.0014 15.6036 74.2461 15.3975 74.2904 15.1169L75.9925 4.48905C76.0004 4.43979 75.9974 4.38942 75.9837 4.34142C75.9699 4.29341 75.9458 4.2489 75.913 4.21095C75.8802 4.173 75.8394 4.14251 75.7934 4.12157C75.7475 4.10064 75.6975 4.08975 75.6469 4.08966H73.7038C73.6204 4.08995 73.5398 4.11951 73.4764 4.17304C73.4131 4.22656 73.3712 4.30056 73.3582 4.38178Z" fill="#167FC4"/>
<path d="M4.46792 17.6691L4.78952 15.6558L4.07314 15.6394H0.652344L3.02962 0.783032C3.0367 0.737639 3.06009 0.696265 3.09553 0.66645C3.13098 0.636635 3.17611 0.620366 3.22271 0.620608H8.99065C10.9055 0.620608 12.227 1.01334 12.9169 1.78849C13.2404 2.15212 13.4464 2.53212 13.546 2.95031C13.6505 3.38909 13.6524 3.91334 13.5503 4.55273L13.5429 4.5994V5.00909L13.8663 5.1897C14.1133 5.313 14.3352 5.47978 14.5212 5.68182C14.7979 5.99273 14.9769 6.38788 15.0525 6.85637C15.1306 7.33818 15.1048 7.91152 14.9769 8.56061C14.8293 9.30728 14.5907 9.95758 14.2685 10.4897C13.9842 10.9664 13.602 11.3793 13.1463 11.7018C12.7183 12.0012 12.2098 12.2285 11.6348 12.3739C11.0777 12.517 10.4425 12.5891 9.74577 12.5891H9.29688C8.97589 12.5891 8.66413 12.703 8.41939 12.9073C8.175 13.1137 8.01288 13.3989 7.96189 13.7121L7.92807 13.8933L7.35988 17.4418L7.33406 17.5721C7.32729 17.6133 7.31561 17.6339 7.29839 17.6479C7.28171 17.6613 7.2609 17.6688 7.23936 17.6691H4.46792Z" fill="#022273"/>
<path d="M14.172 4.64667C14.1548 4.75515 14.1351 4.86606 14.113 4.98C13.3523 8.82909 10.75 10.1588 7.42635 10.1588H5.73409C5.32763 10.1588 4.98512 10.4497 4.92178 10.8448L4.05536 16.2606L3.81 17.7958C3.80023 17.8567 3.80396 17.9189 3.82094 17.9782C3.83792 18.0376 3.86775 18.0926 3.90836 18.1395C3.94898 18.1864 3.99942 18.224 4.05622 18.2498C4.11302 18.2757 4.17482 18.2891 4.23737 18.2891H7.23879C7.59422 18.2891 7.89614 18.0345 7.9521 17.6891L7.98162 17.5388L8.54673 14.0042L8.58301 13.8103C8.63835 13.4636 8.94089 13.2091 9.29631 13.2091H9.74521C12.6532 13.2091 14.9296 12.0455 15.5949 8.67818C15.8729 7.27152 15.729 6.09697 14.9935 5.27091C14.7604 5.01537 14.4821 4.80384 14.172 4.64667Z" fill="#167FC4"/>
<path d="M13.3764 4.33394C13.1335 4.2647 12.8865 4.21065 12.6367 4.17212C12.1431 4.09736 11.6442 4.06149 11.1449 4.06485H6.62397C6.45192 4.06472 6.2855 4.12526 6.15479 4.23552C6.02408 4.34579 5.9377 4.4985 5.91128 4.66606L4.94955 10.6697L4.92188 10.8449C4.95184 10.6537 5.05021 10.4795 5.1992 10.3537C5.3482 10.2278 5.53797 10.1587 5.73418 10.1588H7.42644C10.7501 10.1588 13.3524 8.82849 14.1131 4.98C14.1358 4.86606 14.1549 4.75516 14.1721 4.64667C13.9714 4.54293 13.7622 4.45596 13.5467 4.38667C13.4902 4.3682 13.4335 4.35062 13.3764 4.33394Z" fill="#022273"/>
<path d="M5.91178 4.66606C5.93798 4.49845 6.02431 4.34567 6.15508 4.23546C6.28586 4.12525 6.45241 4.06493 6.62447 4.06545H11.1454C11.681 4.06545 12.1809 4.1 12.6372 4.17273C12.9459 4.22055 13.2504 4.29208 13.5478 4.38667C13.7723 4.46 13.9808 4.54667 14.1732 4.64667C14.3995 3.22424 14.1714 2.25576 13.391 1.37879C12.5308 0.413333 10.9781 0 8.99129 0H3.22335C2.81751 0 2.47131 0.290909 2.40858 0.686667L0.00609367 15.6958C-0.00509672 15.7654 -0.000839159 15.8367 0.0185735 15.9046C0.0379862 15.9725 0.0720932 16.0355 0.118548 16.0891C0.165004 16.1428 0.222705 16.1859 0.287682 16.2155C0.35266 16.2451 0.423372 16.2605 0.494955 16.2606H4.05595L4.95005 10.6697L5.91178 4.66606Z" fill="#022273"/>
</svg>
