<svg  id="basket" viewBox="0 0 24 24" fill="none" xmlns="http://www.w3.org/2000/svg">
<path d="M17.8895 20.85H6.10955C5.79187 20.8503 5.48326 20.7441 5.23309 20.5483C4.98291 20.3525 4.80561 20.0785 4.72955 19.77L2.07955 9.16004C2.05369 9.05675 2.05174 8.94892 2.07383 8.84476C2.09593 8.7406 2.1415 8.64286 2.20707 8.55897C2.27264 8.47507 2.35649 8.40724 2.45223 8.36064C2.54797 8.31404 2.65307 8.28989 2.75955 8.29004H21.2395C21.346 8.28989 21.4511 8.31404 21.5469 8.36064C21.6426 8.40724 21.7265 8.47507 21.792 8.55897C21.8576 8.64286 21.9032 8.7406 21.9253 8.84476C21.9474 8.94892 21.9454 9.05675 21.9195 9.16004L19.2695 19.77C19.1935 20.0785 19.0162 20.3525 18.766 20.5483C18.5158 20.7441 18.2072 20.8503 17.8895 20.85V20.85Z" stroke="#151515" stroke-width="2.5" stroke-linecap="round" stroke-linejoin="round"/>
<path d="M9.79941 3.1499L6.89941 8.2899" stroke="#151515" stroke-width="2.5" stroke-linecap="round" stroke-linejoin="round"/>
<path d="M13.8799 3.1499L16.7899 8.2899" stroke="#151515" stroke-width="2.5" stroke-linecap="round" stroke-linejoin="round"/>
</svg>
